<svg width="1000" height="1000" viewBox="0 0 1000 1000" fill="none" xmlns="http://www.w3.org/2000/svg">
<rect y="17.3076" width="1000" height="961.538" fill="white"/>
<rect x="190" y="190" width="620" height="620" stroke="#2A261D" stroke-width="80"/>
<mask id="path-3-inside-1_1192_57" fill="white">
<path d="M850 500C804.037 500 758.525 509.053 716.061 526.642C673.597 544.231 635.013 570.012 602.513 602.513C570.012 635.013 544.231 673.597 526.642 716.061C509.053 758.525 500 804.037 500 850L850 850L850 500Z"/>
</mask>
<path d="M850 500C804.037 500 758.525 509.053 716.061 526.642C673.597 544.231 635.013 570.012 602.513 602.513C570.012 635.013 544.231 673.597 526.642 716.061C509.053 758.525 500 804.037 500 850L850 850L850 500Z" stroke="#D7EDA7" stroke-width="160" mask="url(#path-3-inside-1_1192_57)"/>
</svg>
