<svg width="1000" height="1000" viewBox="0 0 1000 1000" fill="none" xmlns="http://www.w3.org/2000/svg">
<path d="M442 33.4863C477.891 12.7649 522.109 12.7649 558 33.4863L875.013 216.514C910.903 237.235 933.013 275.53 933.013 316.973V683.027C933.013 724.47 910.903 762.765 875.013 783.486L558 966.514C522.109 987.235 477.891 987.235 442 966.514L124.987 783.486C89.0968 762.765 66.9873 724.47 66.9873 683.027V316.973C66.9873 275.53 89.0968 237.235 124.987 216.514L442 33.4863Z" fill="#CFF44E"/>
<path d="M460.332 74.3206C485.169 59.9006 515.83 59.9006 540.668 74.3206L847.348 252.374C872.005 266.69 887.18 293.047 887.18 321.559V678.441C887.18 706.953 872.005 733.31 847.348 747.626L540.668 925.679C515.831 940.099 485.17 940.099 460.332 925.679L153.652 747.626C128.994 733.31 113.82 706.953 113.82 678.441V321.559C113.82 293.047 128.994 266.69 153.652 252.374L460.332 74.3206Z" fill="black"/>
<rect width="375" height="375" rx="20" transform="matrix(0.866025 -0.5 2.20305e-08 1 523 512.936)" fill="white"/>
<rect width="375" height="375" rx="20" transform="matrix(0.866025 0.5 -2.20305e-08 1 156 326)" fill="white"/>
<rect width="185" height="185" rx="20" transform="matrix(0.866025 0.5 -2.20305e-08 1 229 468)" fill="#111111"/>
<circle cx="100" cy="100" r="100" transform="matrix(0.866025 -0.5 2.20305e-08 1 611 557)" fill="#111111"/>
<rect width="375" height="375" rx="20" transform="matrix(0.866025 0.5 -0.866025 0.5 499.76 101)" fill="white"/>
<path d="M574.826 227.34C593.04 224.522 609.706 234.145 604.826 244.66L552.667 357.046C547.787 367.562 525.02 371.084 511.687 363.386L369.187 281.114C355.853 273.416 361.954 260.271 380.167 257.454L574.826 227.34Z" fill="#111111"/>
</svg>
