<?xml version="1.0" encoding="UTF-8"?>
<svg version="1.1" xmlns="http://www.w3.org/2000/svg" width="1000" height="1000">
<path d="M0 0 C5.34457526 3.1414803 10.71719145 6.23401149 16.08984375 9.32714844 C18.27474076 10.58626098 20.45963659 11.84537557 22.64453125 13.10449219 C23.72959961 13.72952637 24.81466797 14.35456055 25.93261719 14.99853516 C31.36144317 18.12644992 36.78803656 21.25823292 42.21484375 24.38964844 C44.38149958 25.63966723 46.54816625 26.88966722 48.71484375 28.13964844 C120.21484375 69.38964844 120.21484375 69.38964844 191.71484375 110.63964844 C192.78750488 111.258479 193.86016602 111.87730957 194.96533203 112.51489258 C197.13041446 113.76400362 199.29545357 115.01318973 201.46044922 116.26245117 C206.90100081 119.40167153 212.34231591 122.53955407 217.78515625 125.67480469 C228.23690574 131.69712172 238.67783923 137.73634181 249.08984375 143.82714844 C257.76746616 148.90239967 266.48089943 153.9122361 275.21484375 158.88964844 C284.92576594 164.42383347 294.60974963 170.00107765 304.2487793 175.65991211 C308.92889778 178.40434641 313.61800148 181.12816644 318.34521484 183.79090881 C320.0995089 184.77911663 321.85149324 185.77131422 323.60302734 186.7644043 C325.8055569 188.01076656 328.01258546 189.24922913 330.22509766 190.4777832 C341.43972432 196.84450378 350.75612578 204.30944056 358.21484375 214.88964844 C358.75882813 215.65792969 359.3028125 216.42621094 359.86328125 217.21777344 C366.60815661 227.55763313 370.37559186 240.0245187 370.34906483 252.33463097 C370.35141706 253.07879066 370.35376929 253.82295036 370.3561928 254.58966035 C370.36286653 257.09115013 370.36242506 259.59258777 370.36201477 262.09408569 C370.36531442 263.90262354 370.3690402 265.71116066 370.37315625 267.51969683 C370.3831731 272.49613446 370.38689255 277.47256003 370.38954556 282.44900632 C370.39344961 287.8139505 370.40302796 293.17888515 370.41175842 298.54382324 C370.4315212 311.5044752 370.44158935 324.46512794 370.45048621 337.4257912 C370.4548699 343.53054126 370.46023654 349.63529045 370.46547508 355.74003983 C370.48248807 376.03660845 370.49698156 396.33317654 370.50422382 416.62975121 C370.5061337 421.89688493 370.50805403 427.16401864 370.51000977 432.43115234 C370.51049351 433.74026068 370.51097725 435.04936901 370.51147565 436.3981473 C370.51977334 457.59792976 370.54510558 478.79765575 370.57759044 499.99741356 C370.61067671 521.76733432 370.62867405 543.53722639 370.63186806 565.30717242 C370.63403183 577.52825651 370.64276093 589.74925827 370.66832924 601.97031784 C370.6900577 612.38003993 370.6980761 622.7896597 370.68836246 633.1994019 C370.68382386 638.5075734 370.68567846 643.81553387 370.7051239 649.1236763 C370.72279986 653.99099405 370.72172191 658.85794753 370.70622661 663.72526939 C370.70385725 665.47840793 370.70813889 667.23157199 370.72005526 668.98467164 C370.846346 688.80505787 366.22524287 705.41380839 353.21484375 720.88964844 C352.60125 721.70175781 351.98765625 722.51386719 351.35546875 723.35058594 C343.90115542 732.19238094 333.27821027 737.74836996 323.25 743.14746094 C317.70265316 746.13931315 312.27300623 749.32134497 306.83984375 752.51464844 C297.998006 757.69875079 289.12061757 762.81653254 280.21484375 767.88964844 C270.49340669 773.42916682 260.80589058 779.02340038 251.14794922 784.6730957 C240.6239975 790.82731585 230.06104238 796.9133484 219.49707031 802.99853516 C214.06824433 806.12644992 208.64165094 809.25823292 203.21484375 812.38964844 C201.04818792 813.63966723 198.88152125 814.88966722 196.71484375 816.13964844 C195.10609375 817.06777344 195.10609375 817.06777344 193.46484375 818.01464844 C110.58984375 865.82714844 110.58984375 865.82714844 27.71484375 913.63964844 C26.64153809 914.25888184 25.56823242 914.87811523 24.46240234 915.51611328 C22.30393877 916.76134328 20.14541052 918.00646116 17.98681641 919.25146484 C11.30691609 923.10443861 4.62962144 926.96188583 -2.04614258 930.82202148 C-5.32790139 932.71714848 -8.61283263 934.60666793 -11.8984375 936.49511719 C-15.45135658 938.53777577 -18.99175279 940.59810669 -22.515625 942.69042969 C-40.56567767 953.30909255 -61.01596681 957.39630549 -81.66015625 952.38964844 C-97.40071594 947.42255126 -111.45535443 938.11092298 -125.5703125 929.77929688 C-130.91488776 926.63781658 -136.28750395 923.54528538 -141.66015625 920.45214844 C-143.84505326 919.1930359 -146.02994909 917.93392131 -148.21484375 916.67480469 C-149.29991211 916.04977051 -150.38498047 915.42473633 -151.50292969 914.78076172 C-156.93175567 911.65284695 -162.35834906 908.52106396 -167.78515625 905.38964844 C-169.95181208 904.13962965 -172.11847875 902.88962965 -174.28515625 901.63964844 C-221.95182292 874.13964844 -269.61848958 846.63964844 -317.28515625 819.13964844 C-318.35781738 818.52081787 -319.43047852 817.9019873 -320.53564453 817.2644043 C-322.70072696 816.01529326 -324.86576607 814.76610714 -327.03076172 813.5168457 C-332.47131331 810.37762534 -337.91262841 807.23974281 -343.35546875 804.10449219 C-353.80721824 798.08217515 -364.24815173 792.04295507 -374.66015625 785.95214844 C-383.33777866 780.8768972 -392.05121193 775.86706077 -400.78515625 770.88964844 C-410.49607844 765.35546341 -420.18006213 759.77821922 -429.8190918 754.11938477 C-434.49921028 751.37495047 -439.18831398 748.65113043 -443.91552734 745.98838806 C-445.6698214 745.00018025 -447.42180574 744.00798266 -449.17333984 743.01489258 C-451.3758694 741.76853031 -453.58289796 740.53006774 -455.79541016 739.30151367 C-467.01003682 732.9347931 -476.32643828 725.46985631 -483.78515625 714.88964844 C-484.32914063 714.12136719 -484.873125 713.35308594 -485.43359375 712.56152344 C-492.17846911 702.22166375 -495.94590436 689.75477818 -495.91937733 677.44466591 C-495.92290567 676.32842637 -495.92290567 676.32842637 -495.9265053 675.18963653 C-495.93317903 672.68814675 -495.93273756 670.18670911 -495.93232727 667.68521118 C-495.93562692 665.87667333 -495.9393527 664.06813622 -495.94346875 662.25960004 C-495.9534856 657.28316241 -495.95720505 652.30673684 -495.95985806 647.33029056 C-495.96376211 641.96534637 -495.97334046 636.60041173 -495.98207092 631.23547363 C-496.0018337 618.27482167 -496.01190185 605.31416893 -496.02079871 592.35350567 C-496.0251824 586.24875561 -496.03054904 580.14400642 -496.03578758 574.03925705 C-496.05280057 553.74268842 -496.06729406 533.44612033 -496.07453632 513.14954567 C-496.0764462 507.88241195 -496.07836653 502.61527823 -496.08032227 497.34814453 C-496.08080601 496.0390362 -496.08128975 494.72992786 -496.08178815 493.38114958 C-496.09008584 472.18136711 -496.11541808 450.98164112 -496.14790294 429.78188331 C-496.18098921 408.01196256 -496.19898655 386.24207049 -496.20218056 364.47212446 C-496.20434433 352.25104037 -496.21307343 340.0300386 -496.23864174 327.80897903 C-496.2603702 317.39925694 -496.2683886 306.98963717 -496.25867496 296.57989497 C-496.25413636 291.27172348 -496.25599096 285.963763 -496.2754364 280.65562057 C-496.29311236 275.78830282 -496.29203441 270.92134934 -496.27653911 266.05402748 C-496.27416975 264.30088894 -496.27845139 262.54772488 -496.29036776 260.79462524 C-496.4166585 240.97423901 -491.79555537 224.36548848 -478.78515625 208.88964844 C-478.1715625 208.07753906 -477.55796875 207.26542969 -476.92578125 206.42871094 C-469.47146792 197.58691593 -458.84852277 192.03092691 -448.8203125 186.63183594 C-443.27296566 183.63998373 -437.84331873 180.45795191 -432.41015625 177.26464844 C-423.5683185 172.08054609 -414.69093007 166.96276433 -405.78515625 161.88964844 C-396.06371919 156.35013005 -386.37620308 150.75589649 -376.71826172 145.10620117 C-366.19431 138.95198102 -355.63135488 132.86594848 -345.06738281 126.78076172 C-339.63855683 123.65284695 -334.21196344 120.52106396 -328.78515625 117.38964844 C-326.61850042 116.13962965 -324.45183375 114.88962965 -322.28515625 113.63964844 C-321.21265625 113.02089844 -320.14015625 112.40214844 -319.03515625 111.76464844 C-263.78515625 79.88964844 -208.53515625 48.01464844 -153.28515625 16.13964844 C-152.21185059 15.52041504 -151.13854492 14.90118164 -150.03271484 14.26318359 C-147.87425127 13.0179536 -145.71572302 11.77283572 -143.55712891 10.52783203 C-136.87722859 6.67485827 -130.19993394 2.81741105 -123.52416992 -1.04272461 C-120.24241111 -2.9378516 -116.95747987 -4.82737106 -113.671875 -6.71582031 C-110.11895592 -8.75847889 -106.57855971 -10.81880982 -103.0546875 -12.91113281 C-65.53069174 -34.98611884 -34.07650932 -20.11431655 0 0 Z " fill="#010101" transform="translate(562.78515625,35.1103515625)"/>
<path d="M0 0 C2.83250772 1.52463615 5.56082538 3.16472532 8.29614258 4.85693359 C10.04567279 5.84389789 11.79956788 6.82316708 13.55786133 7.79443359 C15.36722931 8.81389402 17.17579456 9.83478019 18.98364258 10.85693359 C20.46513794 11.69442139 20.46513794 11.69442139 21.9765625 12.54882812 C30.05634253 17.12921965 38.08616736 21.7919481 46.1015625 26.48388672 C53.4830065 30.80426727 60.88431098 35.08891393 68.29614258 39.35693359 C81.64641501 47.04790535 94.9534754 54.8117641 108.25512695 62.58642578 C120.67696848 69.84546501 133.11772678 77.06997531 145.5847168 84.2512207 C153.82583449 89.00107892 162.04481168 93.78788401 170.25708008 98.58740234 C177.58898022 102.86915505 184.93885064 107.1189805 192.29614258 111.35693359 C205.64629923 119.04810828 218.95347386 126.8117632 232.25512695 134.58642578 C243.58467286 141.20715251 254.92601926 147.80609217 266.29614258 154.35693359 C285.39333694 165.36315801 304.43148889 176.45584591 323.29614258 187.85693359 C321.98784715 191.78181989 320.50818745 192.18667177 316.96020508 194.22802734 C315.84291016 194.87852051 314.72561523 195.52901367 313.57446289 196.19921875 C312.97879517 196.54075989 312.38312744 196.88230103 311.76940918 197.23419189 C308.65029848 199.02344201 305.5484058 200.84212255 302.44458008 202.65771484 C301.82502441 203.01915588 301.20546875 203.38059692 300.56713867 203.75299072 C295.48951485 206.72252404 290.49931394 209.81031838 285.54614258 212.98193359 C275.88099853 219.15427001 266.08724435 225.10585337 256.27954102 231.04833984 C251.23976478 234.10354953 246.20555927 237.1679035 241.17114258 240.23193359 C240.27234375 240.77833496 239.37354492 241.32473633 238.44750977 241.88769531 C231.38177589 246.18603838 224.3368143 250.51768347 217.29614258 254.85693359 C203.64947192 263.26696601 189.99903972 271.66922837 176.29663086 279.98828125 C169.27929135 284.25007291 162.28513234 288.54882999 155.29614258 292.85693359 C141.64954546 301.26708329 127.99903835 309.6692292 114.29663086 317.98828125 C107.27929135 322.25007291 100.28513234 326.54882999 93.29614258 330.85693359 C79.64954546 339.26708329 65.99903835 347.6692292 52.29663086 355.98828125 C45.27928569 360.25007634 38.28614142 364.55046325 31.29614258 368.85693359 C29.07100521 370.22562325 26.84574492 371.59411307 24.62036133 372.96240234 C23.52530273 373.6359375 22.43024414 374.30947266 21.30200195 375.00341797 C19.07036244 376.37602732 16.83858932 377.74841949 14.60668945 379.12060547 C12.97376953 380.12510742 12.97376953 380.12510742 11.30786133 381.14990234 C10.27064941 381.78331543 9.2334375 382.41672852 8.16479492 383.06933594 C6.38830968 384.17635083 4.62904061 385.31222695 2.90014648 386.4921875 C2.21227051 386.95931152 1.52439453 387.42643555 0.81567383 387.90771484 C0.2456665 388.3128833 -0.32434082 388.71805176 -0.91162109 389.13549805 C-3.53751833 390.19251022 -5.02313935 389.69591796 -7.70385742 388.85693359 C-10.3815918 387.45263672 -10.3815918 387.45263672 -13.29760742 385.63818359 C-14.39524414 384.96207031 -15.49288086 384.28595703 -16.6237793 383.58935547 C-17.20571045 383.22640381 -17.7876416 382.86345215 -18.38720703 382.48950195 C-21.52460431 380.53353018 -24.67749662 378.6027971 -27.82885742 376.66943359 C-28.48084106 376.26865601 -29.13282471 375.86787842 -29.80456543 375.45495605 C-36.54537554 371.32059806 -43.36920782 367.3334865 -50.20385742 363.35693359 C-60.27671355 357.48702911 -70.27655337 351.50991934 -80.22836304 345.43725586 C-91.24453055 338.71689423 -102.32702009 332.11208315 -113.43164062 325.5390625 C-114.69557027 324.79087589 -115.95948643 324.0426665 -117.22338867 323.29443359 C-118.15429321 322.74340469 -118.15429321 322.74340469 -119.10400391 322.1812439 C-124.10757307 319.2166944 -129.09490116 316.22559511 -134.07962036 313.22949219 C-138.43901097 310.61109131 -142.80820935 308.0097752 -147.18432617 305.41943359 C-147.80671173 305.05098831 -148.42909729 304.68254303 -149.07034302 304.30293274 C-150.3499169 303.54549867 -151.62949871 302.78807799 -152.90908813 302.03067017 C-163.98368403 295.4732068 -175.02616408 288.86740651 -186.01635742 282.16943359 C-198.32239111 274.67123287 -210.70450719 267.30650217 -223.11254883 259.97851562 C-229.62570907 256.13149307 -236.13494499 252.27785693 -242.64135742 248.41943359 C-243.31464081 248.02019684 -243.98792419 247.62096008 -244.68161011 247.20962524 C-254.74195648 241.2409796 -264.75759055 235.20245654 -274.74645996 229.11508179 C-283.26001625 223.92800939 -291.80981784 218.8058167 -300.39135742 213.73193359 C-301.48722168 213.08240723 -302.58308594 212.43288086 -303.7121582 211.76367188 C-308.84546868 208.72252488 -313.98352585 205.69036885 -319.13859558 202.6862793 C-320.92216605 201.64496739 -322.70281579 200.59885168 -324.48242188 199.55078125 C-326.71270266 198.2381373 -328.94805238 196.93405867 -331.18896484 195.63964844 C-332.17743408 195.05521973 -333.16590332 194.47079102 -334.18432617 193.86865234 C-335.49759888 193.10234497 -335.49759888 193.10234497 -336.83740234 192.32055664 C-337.45333252 191.83756104 -338.0692627 191.35456543 -338.70385742 190.85693359 C-338.70385742 189.86693359 -338.70385742 188.87693359 -338.70385742 187.85693359 C-337.82729492 187.36966797 -336.95073242 186.88240234 -336.04760742 186.38037109 C-326.71943489 181.17400774 -317.47718347 175.82888022 -308.2565918 170.43457031 C-300.75482551 166.04764756 -293.23477686 161.69359965 -285.70385742 157.35693359 C-277.35580943 152.5485274 -269.02137413 147.71796249 -260.70385742 142.85693359 C-252.3863395 137.99590399 -244.05180089 133.16552256 -235.70385742 128.35693359 C-223.34363224 121.23606951 -211.01918415 114.05509981 -198.70385742 106.85693359 C-185.29627024 99.02035376 -171.87226463 91.21414752 -158.4152832 83.46264648 C-151.16463756 79.28365766 -143.92913157 75.0796202 -136.70385742 70.85693359 C-128.38633987 65.9959042 -120.05183287 61.16546665 -111.70385742 56.35693359 C-102.20161579 50.88334762 -92.71934583 45.37674936 -83.25073242 39.84521484 C-77.2426945 36.33588408 -71.22784945 32.83880227 -65.20385742 29.35693359 C-59.06048811 25.80582264 -52.92527207 22.24109949 -46.7980957 18.66210938 C-44.74603554 17.46493936 -42.69233804 16.27057122 -40.63696289 15.07910156 C-35.82143114 12.28431105 -31.03459707 9.45990433 -26.30541992 6.52099609 C-25.46237305 6.00666016 -24.61932617 5.49232422 -23.75073242 4.96240234 C-22.19534241 4.01160748 -20.64996112 3.04412944 -19.11791992 2.05615234 C-12.81761128 -1.75414461 -6.96072248 -2.94267293 0 0 Z " fill="#FEFEFE" transform="translate(506.703857421875,104.14306640625)"/>
<path d="M0 0 C5.34457526 3.1414803 10.71719145 6.23401149 16.08984375 9.32714844 C18.27474076 10.58626098 20.45963659 11.84537557 22.64453125 13.10449219 C23.72959961 13.72952637 24.81466797 14.35456055 25.93261719 14.99853516 C31.36144317 18.12644992 36.78803656 21.25823292 42.21484375 24.38964844 C44.38149958 25.63966723 46.54816625 26.88966722 48.71484375 28.13964844 C120.21484375 69.38964844 120.21484375 69.38964844 191.71484375 110.63964844 C192.78750488 111.258479 193.86016602 111.87730957 194.96533203 112.51489258 C197.13041446 113.76400362 199.29545357 115.01318973 201.46044922 116.26245117 C206.90100081 119.40167153 212.34231591 122.53955407 217.78515625 125.67480469 C228.23690574 131.69712172 238.67783923 137.73634181 249.08984375 143.82714844 C257.76746616 148.90239967 266.48089943 153.9122361 275.21484375 158.88964844 C284.92576594 164.42383347 294.60974963 170.00107765 304.2487793 175.65991211 C308.92889778 178.40434641 313.61800148 181.12816644 318.34521484 183.79090881 C320.0995089 184.77911663 321.85149324 185.77131422 323.60302734 186.7644043 C325.8055569 188.01076656 328.01258546 189.24922913 330.22509766 190.4777832 C341.43972432 196.84450378 350.75612578 204.30944056 358.21484375 214.88964844 C358.75882813 215.65792969 359.3028125 216.42621094 359.86328125 217.21777344 C366.60815661 227.55763313 370.37559186 240.0245187 370.34906483 252.33463097 C370.35141706 253.07879066 370.35376929 253.82295036 370.3561928 254.58966035 C370.36286653 257.09115013 370.36242506 259.59258777 370.36201477 262.09408569 C370.36531442 263.90262354 370.3690402 265.71116066 370.37315625 267.51969683 C370.3831731 272.49613446 370.38689255 277.47256003 370.38954556 282.44900632 C370.39344961 287.8139505 370.40302796 293.17888515 370.41175842 298.54382324 C370.4315212 311.5044752 370.44158935 324.46512794 370.45048621 337.4257912 C370.4548699 343.53054126 370.46023654 349.63529045 370.46547508 355.74003983 C370.48248807 376.03660845 370.49698156 396.33317654 370.50422382 416.62975121 C370.5061337 421.89688493 370.50805403 427.16401864 370.51000977 432.43115234 C370.51049351 433.74026068 370.51097725 435.04936901 370.51147565 436.3981473 C370.51977334 457.59792976 370.54510558 478.79765575 370.57759044 499.99741356 C370.61067671 521.76733432 370.62867405 543.53722639 370.63186806 565.30717242 C370.63403183 577.52825651 370.64276093 589.74925827 370.66832924 601.97031784 C370.6900577 612.38003993 370.6980761 622.7896597 370.68836246 633.1994019 C370.68382386 638.5075734 370.68567846 643.81553387 370.7051239 649.1236763 C370.72279986 653.99099405 370.72172191 658.85794753 370.70622661 663.72526939 C370.70385725 665.47840793 370.70813889 667.23157199 370.72005526 668.98467164 C370.846346 688.80505787 366.22524287 705.41380839 353.21484375 720.88964844 C352.60125 721.70175781 351.98765625 722.51386719 351.35546875 723.35058594 C343.90115542 732.19238094 333.27821027 737.74836996 323.25 743.14746094 C317.70265316 746.13931315 312.27300623 749.32134497 306.83984375 752.51464844 C297.998006 757.69875079 289.12061757 762.81653254 280.21484375 767.88964844 C270.49340669 773.42916682 260.80589058 779.02340038 251.14794922 784.6730957 C240.6239975 790.82731585 230.06104238 796.9133484 219.49707031 802.99853516 C214.06824433 806.12644992 208.64165094 809.25823292 203.21484375 812.38964844 C201.04818792 813.63966723 198.88152125 814.88966722 196.71484375 816.13964844 C195.10609375 817.06777344 195.10609375 817.06777344 193.46484375 818.01464844 C110.58984375 865.82714844 110.58984375 865.82714844 27.71484375 913.63964844 C26.64153809 914.25888184 25.56823242 914.87811523 24.46240234 915.51611328 C22.30393877 916.76134328 20.14541052 918.00646116 17.98681641 919.25146484 C11.30691609 923.10443861 4.62962144 926.96188583 -2.04614258 930.82202148 C-5.32790139 932.71714848 -8.61283263 934.60666793 -11.8984375 936.49511719 C-15.45135658 938.53777577 -18.99175279 940.59810669 -22.515625 942.69042969 C-40.56567767 953.30909255 -61.01596681 957.39630549 -81.66015625 952.38964844 C-97.40071594 947.42255126 -111.45535443 938.11092298 -125.5703125 929.77929688 C-130.91488776 926.63781658 -136.28750395 923.54528538 -141.66015625 920.45214844 C-143.84505326 919.1930359 -146.02994909 917.93392131 -148.21484375 916.67480469 C-149.29991211 916.04977051 -150.38498047 915.42473633 -151.50292969 914.78076172 C-156.93175567 911.65284695 -162.35834906 908.52106396 -167.78515625 905.38964844 C-169.95181208 904.13962965 -172.11847875 902.88962965 -174.28515625 901.63964844 C-221.95182292 874.13964844 -269.61848958 846.63964844 -317.28515625 819.13964844 C-318.35781738 818.52081787 -319.43047852 817.9019873 -320.53564453 817.2644043 C-322.70072696 816.01529326 -324.86576607 814.76610714 -327.03076172 813.5168457 C-332.47131331 810.37762534 -337.91262841 807.23974281 -343.35546875 804.10449219 C-353.80721824 798.08217515 -364.24815173 792.04295507 -374.66015625 785.95214844 C-383.33777866 780.8768972 -392.05121193 775.86706077 -400.78515625 770.88964844 C-410.49607844 765.35546341 -420.18006213 759.77821922 -429.8190918 754.11938477 C-434.49921028 751.37495047 -439.18831398 748.65113043 -443.91552734 745.98838806 C-445.6698214 745.00018025 -447.42180574 744.00798266 -449.17333984 743.01489258 C-451.3758694 741.76853031 -453.58289796 740.53006774 -455.79541016 739.30151367 C-467.01003682 732.9347931 -476.32643828 725.46985631 -483.78515625 714.88964844 C-484.32914063 714.12136719 -484.873125 713.35308594 -485.43359375 712.56152344 C-492.17846911 702.22166375 -495.94590436 689.75477818 -495.91937733 677.44466591 C-495.92290567 676.32842637 -495.92290567 676.32842637 -495.9265053 675.18963653 C-495.93317903 672.68814675 -495.93273756 670.18670911 -495.93232727 667.68521118 C-495.93562692 665.87667333 -495.9393527 664.06813622 -495.94346875 662.25960004 C-495.9534856 657.28316241 -495.95720505 652.30673684 -495.95985806 647.33029056 C-495.96376211 641.96534637 -495.97334046 636.60041173 -495.98207092 631.23547363 C-496.0018337 618.27482167 -496.01190185 605.31416893 -496.02079871 592.35350567 C-496.0251824 586.24875561 -496.03054904 580.14400642 -496.03578758 574.03925705 C-496.05280057 553.74268842 -496.06729406 533.44612033 -496.07453632 513.14954567 C-496.0764462 507.88241195 -496.07836653 502.61527823 -496.08032227 497.34814453 C-496.08080601 496.0390362 -496.08128975 494.72992786 -496.08178815 493.38114958 C-496.09008584 472.18136711 -496.11541808 450.98164112 -496.14790294 429.78188331 C-496.18098921 408.01196256 -496.19898655 386.24207049 -496.20218056 364.47212446 C-496.20434433 352.25104037 -496.21307343 340.0300386 -496.23864174 327.80897903 C-496.2603702 317.39925694 -496.2683886 306.98963717 -496.25867496 296.57989497 C-496.25413636 291.27172348 -496.25599096 285.963763 -496.2754364 280.65562057 C-496.29311236 275.78830282 -496.29203441 270.92134934 -496.27653911 266.05402748 C-496.27416975 264.30088894 -496.27845139 262.54772488 -496.29036776 260.79462524 C-496.4166585 240.97423901 -491.79555537 224.36548848 -478.78515625 208.88964844 C-478.1715625 208.07753906 -477.55796875 207.26542969 -476.92578125 206.42871094 C-469.47146792 197.58691593 -458.84852277 192.03092691 -448.8203125 186.63183594 C-443.27296566 183.63998373 -437.84331873 180.45795191 -432.41015625 177.26464844 C-423.5683185 172.08054609 -414.69093007 166.96276433 -405.78515625 161.88964844 C-396.06371919 156.35013005 -386.37620308 150.75589649 -376.71826172 145.10620117 C-366.19431 138.95198102 -355.63135488 132.86594848 -345.06738281 126.78076172 C-339.63855683 123.65284695 -334.21196344 120.52106396 -328.78515625 117.38964844 C-326.61850042 116.13962965 -324.45183375 114.88962965 -322.28515625 113.63964844 C-321.21265625 113.02089844 -320.14015625 112.40214844 -319.03515625 111.76464844 C-263.78515625 79.88964844 -208.53515625 48.01464844 -153.28515625 16.13964844 C-152.21185059 15.52041504 -151.13854492 14.90118164 -150.03271484 14.26318359 C-147.87425127 13.0179536 -145.71572302 11.77283572 -143.55712891 10.52783203 C-136.87722859 6.67485827 -130.19993394 2.81741105 -123.52416992 -1.04272461 C-120.24241111 -2.9378516 -116.95747987 -4.82737106 -113.671875 -6.71582031 C-110.11895592 -8.75847889 -106.57855971 -10.81880982 -103.0546875 -12.91113281 C-65.53069174 -34.98611884 -34.07650932 -20.11431655 0 0 Z M-115.25244141 48.36669922 C-119.77759838 51.08772575 -124.34637887 53.73409051 -128.91015625 56.38964844 C-131.04038768 57.63049421 -133.17059535 58.87138076 -135.30078125 60.11230469 C-136.91823242 61.05420654 -136.91823242 61.05420654 -138.56835938 62.01513672 C-141.63670555 63.80314233 -144.70346686 65.59382716 -147.76953125 67.38574219 C-160.38232147 74.7556588 -173.02246699 82.07678555 -185.6796875 89.37011719 C-190.88546639 92.36982541 -196.08679734 95.37710415 -201.28515625 98.38964844 C-207.56677151 102.02995965 -213.85441954 105.65966025 -220.14501953 109.28442383 C-233.71870425 117.1069692 -247.25965165 124.98414723 -260.78515625 132.88964844 C-274.19274343 140.72622827 -287.61674904 148.53243452 -301.07373047 156.28393555 C-308.32437611 160.46292437 -315.55988211 164.66696183 -322.78515625 168.88964844 C-331.10267417 173.75067804 -339.43721278 178.58105947 -347.78515625 183.38964844 C-359.14239003 189.93267794 -370.47029884 196.5247 -381.78662109 203.13818359 C-385.90238484 205.54222928 -390.02053636 207.94216667 -394.13916016 210.34130859 C-396.17782294 211.53028643 -398.21528071 212.72133309 -400.25146484 213.91455078 C-404.69594038 216.51800618 -409.14541566 219.10343531 -413.6484375 221.60449219 C-430.4596478 231.01211422 -442.78075687 242.51791608 -448.92167485 261.32563126 C-450.53405333 267.98071912 -450.3308992 274.70463105 -450.28636169 281.50669861 C-450.2902608 283.16596485 -450.29590611 284.82522774 -450.30313259 286.48448282 C-450.31781788 291.01582577 -450.30774741 295.54681875 -450.29339588 300.07815015 C-450.2822503 304.97600111 -450.29424057 309.87380441 -450.30323792 314.77165222 C-450.31714831 324.35568675 -450.30963029 333.93958924 -450.29456233 343.52361744 C-450.27767297 354.692819 -450.28091623 365.86198794 -450.28465641 377.03119833 C-450.29053104 396.96540559 -450.27637938 416.89954963 -450.25170898 436.83374023 C-450.22779264 456.16091278 -450.220704 475.48800086 -450.23120117 494.81518555 C-450.24262052 515.87790155 -450.24452761 536.94057851 -450.23010308 558.00329405 C-450.22857729 560.25097596 -450.22705694 562.49865788 -450.22554207 564.7463398 C-450.22478425 565.85214302 -450.22402644 566.95794623 -450.22324566 568.09725864 C-450.21851045 575.87590496 -450.22034888 583.6545338 -450.22460747 591.43317986 C-450.2295434 600.91833421 -450.22350857 610.40340883 -450.20371317 619.88854497 C-450.1938678 624.72458847 -450.1887062 629.56051078 -450.19660568 634.39656067 C-450.20369889 638.82985054 -450.19677334 643.26289665 -450.17900205 647.69615454 C-450.17498101 649.29358934 -450.17591768 650.89104661 -450.18252092 652.48847281 C-450.25028952 670.4284449 -446.99954004 686.14898324 -434.35058594 699.60302734 C-428.8580454 705.10458387 -422.49750041 709.05995153 -415.78515625 712.88964844 C-414.92776855 713.38078125 -414.07038086 713.87191406 -413.18701172 714.37792969 C-408.28707815 717.17546078 -403.37248696 719.9459204 -398.44921875 722.70214844 C-393.7157522 725.35654659 -389.01789418 728.0632469 -384.34765625 730.82714844 C-383.68137207 731.2212793 -383.01508789 731.61541016 -382.32861328 732.02148438 C-380.9208515 732.85441286 -379.51313826 733.6874234 -378.10546875 734.52050781 C-363.9579483 742.86849757 -349.73237631 751.08379598 -335.49829102 759.28295898 C-328.24706855 763.46226161 -321.01101723 767.66666526 -313.78515625 771.88964844 C-305.36259759 776.81157898 -296.92424801 781.70523561 -288.47265625 786.57714844 C-287.37219971 787.21152832 -286.27174316 787.8459082 -285.13793945 788.49951172 C-282.99955915 789.73201588 -280.86113295 790.96444044 -278.72265625 792.19677734 C-266.06576499 799.49090002 -253.4448961 806.84399735 -240.84765625 814.24057007 C-231.00579466 820.01783618 -221.13481559 825.74256568 -211.24389648 831.43554688 C-204.07654613 835.56245193 -196.92551157 839.71622577 -189.78515625 843.88964844 C-181.36262145 848.81161947 -172.92424772 853.70523578 -164.47265625 858.57714844 C-163.37219971 859.21152832 -162.27174316 859.8459082 -161.13793945 860.49951172 C-158.99955915 861.73201588 -156.86113295 862.96444044 -154.72265625 864.19677734 C-144.43699902 870.12436604 -134.16470617 876.07251166 -123.93367004 882.0940094 C-118.33578277 885.38789743 -112.7306936 888.66932116 -107.12060547 891.94238281 C-105.05804376 893.14652512 -102.99688005 894.35306995 -100.93798828 895.56347656 C-84.54455982 905.17460565 -68.17181074 911.77468131 -48.859375 907.06542969 C-37.10864067 903.13197374 -26.52054604 896.2404963 -15.92578125 889.93743896 C-9.87324044 886.33773154 -3.76699978 882.8336083 2.33984375 879.32714844 C11.63704879 873.969048 20.91174379 868.57329853 30.17626953 863.15893555 C38.60053714 858.23913562 47.05038271 853.36442706 55.50390625 848.49511719 C62.75435865 844.31615716 69.98972644 840.11224338 77.21484375 835.88964844 C85.53236167 831.02861883 93.86690028 826.1982374 102.21484375 821.38964844 C114.57506893 814.26878436 126.89951702 807.08781466 139.21484375 799.88964844 C152.62243093 792.0530686 166.04643654 784.24686236 179.50341797 776.49536133 C186.75406361 772.3163725 193.98956961 768.11233504 201.21484375 763.88964844 C209.53236167 759.02861883 217.86690028 754.1982374 226.21484375 749.38964844 C237.56642618 742.84987473 248.8883165 736.26056379 260.19873047 729.64990234 C263.32812696 727.82353447 266.46056851 726.00248337 269.59375 724.18261719 C274.62705949 721.25850405 279.65367392 718.323249 284.67431641 715.37744141 C286.23430818 714.46387328 287.79608512 713.55333517 289.36083984 712.64794922 C305.81642265 703.12192458 317.00201399 691.75289291 322.24964333 673.23878193 C323.79915683 666.11462839 323.49775659 658.84039669 323.48226929 651.58866882 C323.48600915 649.927157 323.49061201 648.26564693 323.49599993 646.60413963 C323.50820364 642.05278659 323.50797258 637.5015072 323.50561118 632.95014155 C323.50520235 628.03590241 323.51624838 623.12168667 323.52572632 618.2074585 C323.54232239 608.58529016 323.54783522 598.96314633 323.54895107 589.34096488 C323.54990212 581.51852863 323.55401523 573.69610046 323.56035233 565.87366676 C323.5779602 543.68660001 323.5871918 521.49955259 323.58569138 499.3124788 C323.58561147 498.1169609 323.58553155 496.92144299 323.58544922 495.68969727 C323.58536746 494.49271675 323.5852857 493.29573624 323.58520146 492.06248359 C323.58438848 472.66185003 323.60353041 453.26129409 323.63172595 433.86068299 C323.66046086 413.93143588 323.67426594 394.00222663 323.6725384 374.07295829 C323.67187476 362.88769839 323.67735604 351.70251989 323.6988945 340.51727867 C323.71711415 330.99468975 323.72144707 321.47221914 323.70787565 311.94962033 C323.70135028 307.09342432 323.70121338 302.23745525 323.71858215 297.3812809 C323.7343366 292.93060623 323.73142508 288.48033798 323.71401389 284.02967308 C323.71094924 282.42475757 323.7145561 280.81981155 323.72573404 279.21493205 C323.8408097 261.51203764 318.6427112 248.71166044 306.94921875 235.40917969 C299.78917298 228.81170894 291.31844323 224.06700417 282.86810303 219.32516479 C279.76951714 217.58613864 276.68056774 215.830096 273.58984375 214.07714844 C272.96496063 213.72337631 272.34007751 213.36960419 271.69625854 213.00511169 C265.79790117 209.66285662 259.93955957 206.25377457 254.08984375 202.82714844 C245.81518919 197.98477487 237.52297414 193.17436786 229.21484375 188.38964844 C219.87616634 183.01058688 210.55844006 177.59705367 201.25390625 172.15917969 C193.92200611 167.87742698 186.57213568 163.62760153 179.21484375 159.38964844 C165.8646871 151.69847375 152.55751247 143.93481883 139.25585938 136.16015625 C126.83401784 128.90111702 114.39325954 121.67660673 101.92626953 114.49536133 C93.68515184 109.74550311 85.46617465 104.95869802 77.25390625 100.15917969 C69.92200611 95.87742698 62.57213568 91.62760153 55.21484375 87.38964844 C41.8646871 79.69847375 28.55751247 71.93481883 15.25585938 64.16015625 C3.65200964 57.37913266 -7.96189249 50.61576863 -19.59765625 43.88964844 C-20.65259277 43.27871338 -21.7075293 42.66777832 -22.79443359 42.03833008 C-27.74467187 39.18091064 -32.70797327 36.34759016 -37.703125 33.56933594 C-38.97385864 32.86139893 -38.97385864 32.86139893 -40.27026367 32.13916016 C-67.11482948 18.80157276 -92.52456674 34.6316434 -115.25244141 48.36669922 Z " fill="#FEFEFE" transform="translate(562.78515625,35.1103515625)"/>
<path d="M0 0 C2.20551709 1.2575744 4.41070836 2.51571447 6.61572266 3.77416992 C7.23193985 4.12545708 7.84815704 4.47674423 8.48304749 4.83867645 C14.48546011 8.26546842 20.43478969 11.77908722 26.375 15.3125 C27.53224566 15.999698 28.68955563 16.6867877 29.84692383 17.3737793 C32.29855444 18.82928116 34.74978205 20.2854583 37.20068359 21.7421875 C41.04571409 24.02744966 44.89189255 26.3107748 48.73828125 28.59375 C52.72811423 30.96187146 56.71777804 33.3302752 60.70654297 35.70019531 C66.94601279 39.40717444 73.18670739 43.11201407 79.43325806 46.80705261 C105.27055346 62.09069114 105.27055346 62.09069114 114.92211914 68.22802734 C122.11543998 72.76515898 129.48723967 77.00597092 136.83111572 81.2928772 C148.66126075 88.19890478 160.42132737 95.21606747 172.15429688 102.28613281 C176.5369347 104.92564186 180.92475533 107.55649218 185.3125 110.1875 C190.06269293 113.0365828 194.81236669 115.88650182 199.55859375 118.7421875 C207.15637595 123.31093494 214.7629351 127.86416425 222.390625 132.3828125 C223.04442642 132.77016571 223.69822784 133.15751892 224.37184143 133.55661011 C225.03683151 133.9505899 225.70182159 134.3445697 226.38696289 134.75048828 C238.06572092 141.66993079 249.72091797 148.62283951 261.3125 155.6875 C271.50095449 161.89693562 281.73865579 168.01828463 292.01049805 174.08886719 C300.0627325 178.84849236 308.10064142 183.63107827 316.125 188.4375 C317.20483154 189.08283691 318.28466309 189.72817383 319.3972168 190.39306641 C320.38246338 190.98394043 321.36770996 191.57481445 322.3828125 192.18359375 C323.25309082 192.70493896 324.12336914 193.22628418 325.02001953 193.76342773 C327 195 327 195 328 196 C328.10814111 197.49324961 328.14684546 198.99157616 328.15821838 200.48869324 C328.16800752 201.46767861 328.17779665 202.44666399 328.18788242 203.45531559 C328.19363757 204.54667033 328.19939272 205.63802507 328.20532227 206.76245117 C328.22016741 208.49211829 328.22016741 208.49211829 328.23531246 210.25672817 C328.26180906 213.4941019 328.28365245 216.73146833 328.30331039 219.96888971 C328.32104753 222.77804005 328.34217219 225.58716123 328.36322176 228.39628839 C328.42748952 236.99904743 328.48116338 245.60185553 328.53242874 254.20470047 C328.55716138 258.34232008 328.5835062 262.47992747 328.61044246 266.61753327 C329.2533939 365.41012634 329.09467831 464.20591768 329 563 C325.44492525 561.60647182 322.15024908 560.06564644 318.81640625 558.19921875 C317.81810791 557.64113525 316.81980957 557.08305176 315.79125977 556.50805664 C314.19302368 555.6068811 314.19302368 555.6068811 312.5625 554.6875 C310.89175415 553.74861938 310.89175415 553.74861938 309.18725586 552.79077148 C301.19186038 548.2799805 293.26723808 543.65987074 285.37866211 538.96533203 C278.32784443 534.77158877 271.23572056 530.65377953 264.125 526.5625 C255.73460461 521.73432746 247.35726478 516.8853078 239 512 C230.68253329 507.1388845 222.34798337 502.30851774 214 497.5 C204.66136793 492.1208592 195.34359683 486.70740553 186.0390625 481.26953125 C178.70716236 476.98777854 171.35729193 472.73795309 164 468.5 C150.64984335 460.80882531 137.34266872 453.0451704 124.04101562 445.27050781 C111.61917409 438.01146858 99.17841579 430.78695829 86.71142578 423.60571289 C78.47172552 418.85667163 70.25386578 414.07119041 62.04345703 409.27172852 C55.76867389 405.60671517 49.48066024 401.96560075 43.18212891 398.34155273 C39.91587146 396.46103141 36.65297616 394.57478816 33.390625 392.6875 C29.14142224 390.2297549 24.87978187 387.79568658 20.609375 385.375 C18.61430194 384.22965668 16.61949755 383.08384521 14.625 381.9375 C13.70960449 381.42566162 12.79420898 380.91382324 11.85107422 380.38647461 C5.69636507 376.82115377 2.30271928 373.90815784 0 367 C-0.09258027 364.96812164 -0.12374131 362.93326781 -0.12304783 360.8992815 C-0.12503888 359.61490218 -0.12702993 358.33052286 -0.12908131 357.00722295 C-0.12622806 355.57364752 -0.12328246 354.14007227 -0.12025452 352.70649719 C-0.12069033 351.19010611 -0.12156543 349.6737151 -0.12284368 348.15732449 C-0.12508663 343.97971538 -0.12107007 339.80213176 -0.11606562 335.6245259 C-0.11175846 331.12351409 -0.11320774 326.62250378 -0.1139679 322.12149048 C-0.11449296 314.31962555 -0.11134797 306.51776897 -0.10573006 298.71590614 C-0.09761271 287.43563768 -0.09499959 276.15537326 -0.09374207 264.87510218 C-0.09155192 246.57485425 -0.08489283 228.27461076 -0.07543945 209.97436523 C-0.06626438 192.19441754 -0.05918401 174.41447106 -0.05493164 156.63452148 C-0.05466892 155.53908228 -0.05440619 154.44364307 -0.05413551 153.31500874 C-0.0528305 147.8196665 -0.05156678 142.32432425 -0.05032361 136.828982 C-0.03995215 91.21931825 -0.02233483 45.60965935 0 0 Z " fill="#FEFEFE" transform="translate(153,332)"/>
<path d="M0 0 C0.09153723 46.74483012 0.16202943 93.48965076 0.20426132 140.23455283 C0.2092642 145.75207183 0.21444148 151.26959064 0.21972656 156.78710938 C0.2207758 157.88555713 0.22182505 158.98400488 0.22290608 160.11573893 C0.24031564 177.90624265 0.27185638 195.69669471 0.30861118 213.48716778 C0.34600525 231.73916347 0.36823261 249.9911321 0.37635398 268.24316454 C0.38184492 279.50743684 0.39919335 290.77156314 0.43166587 302.0357905 C0.45279479 309.75803397 0.45920371 317.48020187 0.45400551 325.20247215 C0.45144122 329.65914982 0.45539735 334.1155722 0.4768219 338.57220459 C0.49629909 342.65355822 0.49726255 346.73448508 0.48359558 350.81585842 C0.48190665 352.29110054 0.48697114 353.76636937 0.49953273 355.24155897 C0.56341218 363.20755079 0.51536236 369.27322986 -4 376 C-6.2513806 377.77124222 -8.08061821 379.0083714 -10.5625 380.3125 C-11.21742432 380.68093018 -11.87234863 381.04936035 -12.54711914 381.42895508 C-13.95940544 382.22296317 -15.37650352 383.00846246 -16.79785156 383.78613281 C-19.76705827 385.42281748 -22.69279564 387.13022483 -25.62158203 388.83789062 C-28.0094775 390.22944514 -30.40262438 391.61159924 -32.796875 392.9921875 C-38.43695112 396.2487372 -44.06289487 399.52932036 -49.6875 402.8125 C-50.69756104 403.40192383 -51.70762207 403.99134766 -52.74829102 404.59863281 C-57.81614014 407.55644959 -62.88302155 410.51591731 -67.94921875 413.4765625 C-83.69585254 422.67541266 -99.48817612 431.79363497 -115.29101562 440.89550781 C-127.8676392 448.14033048 -140.43036957 455.4073281 -152.96142578 462.73071289 C-160.2931252 467.01244941 -167.6428655 471.2621376 -175 475.5 C-187.36022518 482.62086408 -199.68467327 489.80183378 -212 497 C-225.40248946 504.83360028 -238.82145455 512.6367266 -252.27319336 520.38549805 C-260.67792463 525.22980877 -269.06174165 530.1091468 -277.43774414 535.00292969 C-284.35880107 539.04591764 -291.29056337 543.06983508 -298.23388672 547.07446289 C-302.13180283 549.32598351 -306.0159744 551.59779448 -309.8828125 553.90234375 C-310.66922119 554.36995117 -311.45562988 554.83755859 -312.26586914 555.31933594 C-313.76212945 556.21069798 -315.25622654 557.10570449 -316.74780273 558.00488281 C-321.7786445 561 -321.7786445 561 -324 561 C-324.76355408 489.51286333 -325.40159284 418.02403322 -325.60014153 346.5328846 C-325.60818327 343.69290239 -325.61639793 340.85292074 -325.62475586 338.01293945 C-325.62681605 337.30886868 -325.62887624 336.60479791 -325.63099886 335.87939166 C-325.66622184 324.20584087 -325.73978915 312.53279659 -325.82566347 300.85952119 C-325.9147332 288.64636244 -325.96612441 276.43347693 -325.98155528 264.22000045 C-325.99113373 257.44967479 -326.01726739 250.68033833 -326.08786583 243.91034889 C-326.15158253 237.63692201 -326.16875547 231.36512915 -326.14937019 225.09142494 C-326.15052498 222.79953021 -326.16881724 220.50757032 -326.205513 218.21596909 C-326.46785835 200.95481454 -326.46785835 200.95481454 -322.87030983 196.16379356 C-320.28636927 194.30954513 -317.95152153 193.15508579 -315 192 C-313.33709404 191.02424903 -311.68642238 190.02702846 -310.0546875 189 C-308.32994511 187.99686403 -306.6033036 186.99698783 -304.875 186 C-296.95778596 181.37769461 -289.13337055 176.63411213 -281.375 171.75 C-272.67206533 166.27481769 -263.92153349 160.88542258 -255.125 155.5625 C-245.95736199 150.01405232 -236.80876752 144.43707703 -227.6875 138.8125 C-219.63983927 133.85027974 -211.5804943 128.90858107 -203.5 124 C-194.21223574 118.35780997 -184.95357479 112.66946843 -175.70239258 106.9675293 C-168.54504793 102.55878418 -161.37240863 98.17616054 -154.1875 93.8125 C-146.93710588 89.40870385 -139.70732647 84.97393334 -132.5 80.5 C-124.33997654 75.43468192 -116.14643807 70.42699771 -107.9375 65.44140625 C-100.6087019 60.98722373 -93.30081571 56.49988064 -86 52 C-77.74462311 46.91177259 -69.47607939 41.84646058 -61.1875 36.8125 C-53.08124293 31.8888637 -45.00596228 26.91798424 -36.94799805 21.91577148 C-26.67266479 15.54426538 -16.34398528 9.25935995 -6 3 C-5.09701172 2.44521973 -4.19402344 1.89043945 -3.26367188 1.31884766 C-1 0 -1 0 0 0 Z " fill="#FEFEFE" transform="translate(846,331)"/>
<path d="M0 0 C1.44873047 2.01611328 1.44873047 2.01611328 3.1171875 4.8203125 C4.02791016 6.33625 4.02791016 6.33625 4.95703125 7.8828125 C5.90642578 9.48769531 5.90642578 9.48769531 6.875 11.125 C8.12130156 13.21159149 9.368668 15.29754737 10.6171875 17.3828125 C11.20209961 18.3615332 11.78701172 19.34025391 12.38964844 20.34863281 C14.17925888 23.29514122 16.04524889 26.1611906 18 29 C18.66 28.67 19.32 28.34 20 28 C20.44921875 31.2109375 20.44921875 31.2109375 20 35 C17.55340229 36.98164795 15.57294384 38.22678274 12.8125 39.625 C11.73732731 40.23317415 11.73732731 40.23317415 10.64043397 40.85363466 C6.34972827 43.27930483 2.14330722 45.37606451 -2.46496105 47.13237286 C-8.59861071 49.74364098 -13.89822404 52.61989893 -18 58 C-21.71498994 68.22227709 -20.76502583 79.82366907 -20.52192104 90.53613031 C-20.44313444 95.03033061 -20.48654537 99.52361617 -20.51467896 104.01818848 C-20.54682988 111.79394893 -20.50256704 119.56621389 -20.40552711 127.34139442 C-20.26534611 138.58214733 -20.24175805 149.82080227 -20.24608656 161.06231847 C-20.24996764 179.30234574 -20.16032856 197.54065586 -20.01147461 215.7800293 C-19.86712888 233.49165217 -19.76707854 251.20261765 -19.72631836 268.91479492 C-19.72252306 270.55401288 -19.72252306 270.55401288 -19.71865109 272.22634635 C-19.70622944 277.70898086 -19.69467568 283.19161678 -19.68355334 288.67425406 C-19.59024395 334.11716828 -19.3449921 379.55834621 -19 425 C-19.33 425 -19.66 425 -20 425 C-20.33 304.55 -20.66 184.1 -21 60 C-37.45257873 69.86403771 -37.45257873 69.86403771 -53.8125 79.875 C-62.12913371 85.00701213 -70.45920698 90.11537536 -78.8125 95.1875 C-86.06294265 99.59121536 -93.29267436 104.02606717 -100.5 108.5 C-108.66002346 113.56531808 -116.85356193 118.57300229 -125.0625 123.55859375 C-132.3912981 128.01277627 -139.69918429 132.50011936 -147 137 C-155.25537689 142.08822741 -163.52392061 147.15353942 -171.8125 152.1875 C-179.06289412 156.59129615 -186.29267353 161.02606666 -193.5 165.5 C-201.66002346 170.56531808 -209.85356193 175.57300229 -218.0625 180.55859375 C-225.39129832 185.0127764 -232.69916444 189.50015133 -240 194 C-249.08733065 199.60051108 -258.19338165 205.16879496 -267.31640625 210.7109375 C-275.66207169 215.78491841 -283.97918726 220.90465722 -292.29321289 226.03027344 C-300.33209426 230.98299665 -308.39072201 235.90229103 -316.47460938 240.78125 C-318.18566186 241.81809282 -319.88249065 242.87875552 -321.56462479 243.9618845 C-324.25424653 245.55756457 -326.83545206 246.86747533 -329.6631279 248.16921139 C-338.87077836 252.60210507 -338.87077836 252.60210507 -345.09145641 260.33831334 C-346.81595132 267.17156854 -346.39187864 274.17739116 -346.17285156 281.16430664 C-346.16912271 283.51460387 -346.17378082 285.86492694 -346.18612671 288.2151947 C-346.19585518 294.6085017 -346.08797685 300.99507792 -345.95941639 307.38689733 C-345.84560938 313.49880675 -345.83953057 319.61129465 -345.82260987 325.72408419 C-345.78586002 337.95146824 -345.6638546 350.17646688 -345.48828125 362.40258789 C-345.3218396 374.00569057 -345.19218374 385.6080735 -345.11914062 397.2121582 C-345.11470812 397.9141325 -345.11027561 398.6161068 -345.10570878 399.33935304 C-345.08362148 402.87531564 -345.06229886 406.41128239 -345.04129314 409.94725156 C-344.89858396 433.77054039 -344.6805664 457.59254528 -344.39648438 481.41455078 C-344.38837199 482.09531615 -344.38025961 482.77608152 -344.37190139 483.47747615 C-344.27451924 491.63330941 -344.17489055 499.78911461 -344.07444546 507.94491065 C-343.84267733 526.77004876 -343.61654746 545.5952381 -343.41514087 564.42072934 C-343.33994016 571.38945763 -343.25440864 578.35794876 -343.15992832 585.32644129 C-343.10439288 589.57317633 -343.05765066 593.81997559 -343.01326656 598.06684041 C-342.9911838 600.00618314 -342.96546717 601.94548878 -342.93566227 603.88472819 C-342.49789401 632.70471949 -342.49789401 632.70471949 -349.2421875 640.41015625 C-354.42357365 645.09643217 -359.57903734 646.703731 -366.54296875 646.3828125 C-372.34611091 645.47866634 -377.45149825 642.71367788 -380.98100471 637.90948963 C-386.26633975 628.00532953 -385.40386009 616.19079041 -385.32470703 605.3293457 C-385.32229651 603.45469852 -385.32124278 601.58004919 -385.32142448 599.70540047 C-385.31821072 594.60154748 -385.29653166 589.49792031 -385.27162933 584.39413333 C-385.24817741 578.93148228 -385.24170837 573.46881044 -385.23364258 568.00611877 C-385.22006413 559.85043279 -385.20063244 551.69479429 -385.17462039 543.5391385 C-385.12828347 528.93107864 -385.11708919 514.32324306 -385.12308669 499.71511745 C-385.15546328 416.25073343 -385.15546328 416.25073343 -384.61507022 375.26268178 C-384.59631405 373.83907253 -384.59631405 373.83907253 -384.57717896 372.38670349 C-384.56478027 371.44752223 -384.55238158 370.50834096 -384.53960717 369.54069966 C-384.39026371 357.93703255 -384.31322343 346.33278659 -384.24806023 334.72837543 C-384.19366468 325.71774368 -384.07026583 316.71325572 -383.8567369 307.70496839 C-383.71825276 301.63055884 -383.65824029 295.55865157 -383.66122079 289.4826737 C-383.66029205 286.03917744 -383.62488624 282.60606827 -383.4887085 279.16504097 C-382.57028967 265.49365686 -382.57028967 265.49365686 -388.16658401 253.66175842 C-393.4699279 249.51357974 -399.24804597 246.68090282 -405.43910599 244.10053062 C-408.72382623 242.68893952 -411.61593403 240.95842421 -414.6328125 239.046875 C-416.00131348 238.22630615 -416.00131348 238.22630615 -417.39746094 237.38916016 C-418.29754883 236.8482373 -419.19763672 236.30731445 -420.125 235.75 C-421.14883789 235.13560059 -422.17267578 234.52120117 -423.22753906 233.88818359 C-428.75842824 230.56480576 -434.27966516 227.22606602 -439.7890625 223.8671875 C-451.70049182 216.6067574 -463.64077296 209.40925455 -475.6875 202.375 C-491.13308926 193.35559157 -506.48898402 184.19254248 -521.76171875 174.8828125 C-524.09100802 173.46331535 -526.42041944 172.04401905 -528.75 170.625 C-529.32697632 170.27348877 -529.90395264 169.92197754 -530.49841309 169.55981445 C-542.12309398 162.48335785 -553.85766583 155.60097684 -565.609375 148.73828125 C-572.16162335 144.9110777 -578.67717963 141.02855639 -585.17089844 137.10302734 C-587.22839102 135.86227034 -589.28969038 134.62799651 -591.3515625 133.39453125 C-598.7439529 128.97067858 -606.12899828 124.53600436 -613.484375 120.05078125 C-626.09795935 112.35960435 -638.75448786 104.75718924 -651.5133667 97.30914307 C-663.09100954 90.55030922 -674.59717596 83.67736239 -686.07958984 76.7578125 C-689.0154648 74.99069165 -691.95441009 73.22879581 -694.89453125 71.46875 C-696.28369751 70.63694214 -696.28369751 70.63694214 -697.70092773 69.78833008 C-699.43325304 68.75127566 -701.16582225 67.71462853 -702.89868164 66.6784668 C-703.66172607 66.22125244 -704.42477051 65.76403809 -705.2109375 65.29296875 C-705.87399902 64.8961792 -706.53706055 64.49938965 -707.22021484 64.09057617 C-708.83796747 63.0992866 -710.42134412 62.05243726 -712 61 C-712.33 181.12 -712.66 301.24 -713 425 C-713.33 425 -713.66 425 -714 425 C-713.99755933 424.22821315 -713.99511865 423.4564263 -713.99260402 422.66125196 C-713.84951877 376.93374328 -713.76884954 331.2064905 -713.76939832 285.47874638 C-713.76941012 279.98998123 -713.76889966 274.50121625 -713.76806641 269.01245117 C-713.7679093 267.91972234 -713.76775219 266.8269935 -713.76759031 265.70115168 C-713.76379943 248.00037524 -713.71768616 230.29994866 -713.65597185 212.59929024 C-713.59360254 194.44099506 -713.57662214 176.2830679 -713.60190511 158.12468106 C-713.61607597 146.91681445 -713.59471124 135.71016632 -713.52809784 124.50248391 C-713.48582693 116.82018611 -713.48758694 109.1386901 -713.52415326 101.45636605 C-713.54395682 97.02137089 -713.54417341 92.58862277 -713.49215889 88.15383911 C-713.44495738 84.09289777 -713.45306499 80.03595406 -713.50514546 75.97510708 C-713.5142223 74.50660063 -713.50300852 73.03779915 -713.46944699 71.5696482 C-713.37444356 67.12426487 -713.45305871 63.19120555 -715 59 C-718.65687302 55.75222062 -722.46757227 53.78477653 -727 52 C-725.53383101 47.39233827 -723.68017096 43.43317438 -721.15625 39.32421875 C-720.78649048 38.71359085 -720.41673096 38.10296295 -720.0357666 37.47383118 C-719.2586957 36.19391291 -718.47865965 34.91579058 -717.69580078 33.6394043 C-716.4957871 31.68062329 -715.30789049 29.71485757 -714.12109375 27.74804688 C-713.36268766 26.50217261 -712.60359721 25.25671462 -711.84375 24.01171875 C-711.31086365 23.12899544 -711.31086365 23.12899544 -710.76721191 22.22843933 C-708.23037394 18.11518697 -708.23037394 18.11518697 -706 17 C-703.6628418 18.17724609 -703.6628418 18.17724609 -700.69921875 20.0234375 C-699.59191406 20.70599609 -698.48460937 21.38855469 -697.34375 22.09179688 C-696.74949219 22.46296631 -696.15523437 22.83413574 -695.54296875 23.21655273 C-692.36579834 25.200194 -689.17224903 27.15717414 -685.98046875 29.1171875 C-685.3192099 29.52414856 -684.65795105 29.93110962 -683.97665405 30.35040283 C-677.21161936 34.50482733 -670.3619719 38.50852953 -663.5 42.5 C-653.42255516 48.3721953 -643.41840566 54.35212069 -633.46240234 60.42773438 C-624.01688751 66.1903772 -614.52238875 71.86536604 -605 77.5 C-594.89766909 83.47780014 -584.83255225 89.51030069 -574.8125 95.625 C-564.83066486 101.71589884 -554.77854613 107.67404609 -544.67642212 113.56304932 C-535.13918246 119.12533403 -525.6826005 124.80807222 -516.26025391 130.5625 C-507.39603267 135.97303167 -498.47177698 141.26992922 -489.5 146.5 C-479.42402269 152.37477628 -469.41846296 158.35208573 -459.46240234 164.42773438 C-450.01688541 170.19037848 -440.52230992 175.86523011 -431 181.5 C-421.3436177 187.21460184 -411.71370705 192.96815679 -402.13110352 198.8057251 C-400.39749346 199.86130395 -398.66283081 200.91512814 -396.92773438 201.96826172 C-387.84511491 207.48120662 -387.84511491 207.48120662 -383.71972656 210.01367188 C-380.65309418 211.89523592 -377.57767076 213.76156453 -374.5 215.625 C-373.1375415 216.46973877 -373.1375415 216.46973877 -371.74755859 217.33154297 C-370.91305176 217.83314941 -370.07854492 218.33475586 -369.21875 218.8515625 C-368.49623047 219.29322754 -367.77371094 219.73489258 -367.02929688 220.18994141 C-364.53243091 221.18664512 -363.48213752 220.9398816 -361 220 C-352.17045373 215.4799658 -343.82260628 210.04086813 -335.46606445 204.71459961 C-327.91538664 199.91276873 -320.24950753 195.31623748 -312.56640625 190.73046875 C-305.92667541 186.76728175 -299.35197022 182.70046314 -292.78173828 178.62353516 C-279.78636909 170.5604104 -266.74954652 162.56940727 -253.67919922 154.62841797 C-243.36314465 148.35831737 -233.07112555 142.05114447 -222.8125 135.6875 C-212.47158506 129.27358746 -202.07871481 122.94672308 -191.67919922 116.62841797 C-181.36314465 110.35831737 -171.07112555 104.05114447 -160.8125 97.6875 C-150.47158506 91.27358746 -140.07871481 84.94672308 -129.67919922 78.62841797 C-119.36314382 72.35831686 -109.07116937 66.05107489 -98.8125 59.6875 C-88.57290773 53.33729211 -78.28491501 47.06840333 -67.98632812 40.81445312 C-61.80367665 37.05795658 -55.62627667 33.29282307 -49.44775391 29.52954102 C-48.54460449 28.97967529 -47.64145508 28.42980957 -46.7109375 27.86328125 C-45.91993652 27.38157471 -45.12893555 26.89986816 -44.31396484 26.40356445 C-42.64705307 25.39247817 -40.96268932 24.40996582 -39.26806641 23.44604492 C-36.88624525 22.20062496 -36.88624525 22.20062496 -36 20 C-34.46295143 19.19913301 -32.8925581 18.46226585 -31.3125 17.75 C-23.60587131 14.03213549 -16.54553579 9.35142932 -9.3918457 4.67480469 C-8.00292114 3.7722998 -8.00292114 3.7722998 -6.5859375 2.8515625 C-5.7511084 2.30322754 -4.9162793 1.75489258 -4.05615234 1.18994141 C-2 0 -2 0 0 0 Z " fill="#121212" transform="translate(866,272)"/>
<path d="M0 0 C13.62372159 12.73787422 19.37823916 31.03347917 20.15234375 49.12109375 C20.81756572 72.93887098 14.4655052 94.65190451 2.9921875 115.37890625 C2.6322168 116.03020508 2.27224609 116.68150391 1.90136719 117.35253906 C-2.9758511 126.05908524 -8.38762284 133.87372595 -15.0078125 141.37890625 C-15.7503125 142.23097656 -16.4928125 143.08304688 -17.2578125 143.9609375 C-19.4747185 146.46650313 -21.72741254 148.93106433 -24.0078125 151.37890625 C-24.70390625 152.12914062 -25.4 152.879375 -26.1171875 153.65234375 C-40.57298309 168.6884815 -58.45700826 179.38984203 -78.0078125 186.37890625 C-78.82507813 186.69472656 -79.64234375 187.01054688 -80.484375 187.3359375 C-98.36103685 193.93405087 -119.57474928 193.52182708 -137.02734375 186.09375 C-143.98963853 182.5979964 -149.5147422 177.85316467 -155.0078125 172.37890625 C-155.6575 171.75242187 -156.3071875 171.1259375 -156.9765625 170.48046875 C-171.27896078 155.61350211 -172.41525675 135.33490633 -172.21875 115.984375 C-171.74556243 95.42992498 -164.66238553 77.29565912 -155.0078125 59.37890625 C-154.45351563 58.33089844 -153.89921875 57.28289062 -153.328125 56.203125 C-135.38430236 23.79263195 -104.33977654 -1.72928529 -69.0078125 -12.62109375 C-66.0218643 -13.4520457 -63.06547404 -14.11830428 -60.0078125 -14.62109375 C-59.36457031 -14.73195313 -58.72132813 -14.8428125 -58.05859375 -14.95703125 C-36.57235184 -17.9855682 -17.07833917 -13.78893143 0 0 Z " fill="#111111" transform="translate(765.0078125,542.62109375)"/>
<path d="M0 0 C6.01911828 1.21169546 11.12103863 4.71458269 16.3046875 7.8515625 C17.45226431 8.53205253 18.60072069 9.21106117 19.75 9.88867188 C22.13331998 11.29541196 24.51275681 12.70840405 26.88964844 14.12597656 C32.36821315 17.38616242 37.90180234 20.55101363 43.4296875 23.7265625 C45.59399411 24.97483726 47.75805591 26.22353659 49.921875 27.47265625 C54.28034138 29.98725686 58.63980941 32.50010911 63 35.01171875 C74.47195845 41.62175195 85.92994609 48.25426692 97.3581543 54.93969727 C102.69146751 58.05671764 108.0352679 61.15437919 113.39453125 64.2265625 C113.97804352 64.56147705 114.56155579 64.8963916 115.16275024 65.24145508 C117.97815452 66.85738242 120.79508588 68.47048773 123.61523438 70.078125 C140.91846995 80.00316474 140.91846995 80.00316474 145.3046875 85.1640625 C145.83835937 85.77121094 146.37203125 86.37835937 146.921875 87.00390625 C150.53388928 92.32835217 151.80437262 96.86225392 151.81736755 103.26077271 C151.82544586 104.2690063 151.82544586 104.2690063 151.83368737 105.29760826 C151.84789815 107.5307904 151.84088083 109.763374 151.83374023 111.99658203 C151.83944726 113.60524977 151.84641281 115.21391346 151.85453796 116.8225708 C151.87244333 121.17778368 151.8713065 125.5327948 151.86559558 129.88803339 C151.86250134 133.52644861 151.86859848 137.16482521 151.87463433 140.80323493 C151.88866799 149.38496939 151.88712662 157.96660425 151.87573242 166.54833984 C151.86423926 175.40022473 151.87834955 184.25180707 151.9051289 193.10365212 C151.92727505 200.70892569 151.93392611 208.3141042 151.92805248 215.91940773 C151.92468068 220.45959149 151.92711337 224.99958108 151.94430351 229.5397377 C151.95975443 233.80639456 151.955838 238.07260204 151.93699837 242.33924103 C151.93330798 243.90455158 151.93643408 245.46989531 151.94688416 247.03517532 C151.96006546 249.17274294 151.9485748 251.30881631 151.93089294 253.44631958 C151.93068366 254.64201128 151.93047438 255.83770298 151.93025875 257.06962776 C151.32430168 260.89119549 150.1992525 262.55960835 147.4296875 265.2265625 C140.29070258 266.46215604 135.90342345 263.7791151 129.9296875 260.1015625 C129.02605469 259.5653125 128.12242187 259.0290625 127.19140625 258.4765625 C125.25902552 257.32929405 123.33073499 256.17511289 121.40625 255.01464844 C116.44414413 252.03380334 111.4335309 249.13658189 106.4296875 246.2265625 C104.39838744 245.03914813 102.36713718 243.85164856 100.3359375 242.6640625 C94.88596757 239.48491337 89.41291634 236.34791347 83.9296875 233.2265625 C75.37392075 228.35615647 66.86565411 223.40784088 58.36889648 218.43530273 C52.77927935 215.16798975 47.17431703 211.93140253 41.54296875 208.73657227 C32.62099226 203.67355555 23.75327014 198.52174859 14.9296875 193.2890625 C13.86049072 192.66201416 12.79129395 192.03496582 11.68969727 191.38891602 C5.06392834 187.43536858 -0.19289675 183.92489543 -4.2578125 177.2265625 C-4.85142578 176.2675 -4.85142578 176.2675 -5.45703125 175.2890625 C-8.0109638 170.5575664 -8.82337025 166.87338166 -8.84446716 161.4708252 C-8.84970384 160.80446187 -8.85494052 160.13809854 -8.86033589 159.45154238 C-8.87529799 157.22609716 -8.87604018 155.00088262 -8.87670898 152.77539062 C-8.88433282 151.17687087 -8.8927607 149.57835477 -8.90193176 147.97984314 C-8.92385645 143.64315784 -8.93267246 139.30654304 -8.93775821 134.96980858 C-8.94140295 132.26026449 -8.9476435 129.55073884 -8.9547596 126.84120178 C-8.97924312 117.38842966 -8.99230446 107.93571237 -8.99584961 98.48291016 C-8.9994882 89.67079244 -9.02940941 80.85902231 -9.07125419 72.0470109 C-9.10592778 64.48000343 -9.12139751 56.91311138 -9.12209564 49.34602499 C-9.1228892 44.82697844 -9.13166439 40.30828637 -9.16009331 35.7893219 C-9.18622527 31.5407023 -9.18850684 27.29273241 -9.17243767 23.04406929 C-9.1706195 21.4851954 -9.17734713 19.92628454 -9.19325638 18.36749077 C-9.21366208 16.23832208 -9.20320226 14.11143883 -9.18504333 11.9822998 C-9.18705466 10.79138481 -9.18906599 9.60046982 -9.19113827 8.37346649 C-8.13938818 3.04225001 -5.40614146 0.3430593 0 0 Z " fill="#111111" transform="translate(234.5703125,493.7734375)"/>
<path d="M0 0 C2.55380745 1.8971141 3.32871947 3.08873714 5 6 C5.23558746 12.27217191 3.16531183 18.20932673 1.04296875 24.01953125 C0.74443497 24.86220551 0.44590118 25.70487976 0.13832092 26.5730896 C-0.50283786 28.38029844 -1.14822651 30.18601129 -1.79748535 31.99032593 C-3.54282875 36.84312573 -5.25516236 41.70760251 -6.97265625 46.5703125 C-7.32000824 47.55100204 -7.66736023 48.53169159 -8.02523804 49.542099 C-10.79363422 57.37115151 -13.46190759 65.22933907 -16.06552124 73.11453247 C-17.24219955 76.67814332 -18.42623491 80.23931159 -19.609375 83.80078125 C-19.86160324 84.5602153 -20.11383148 85.31964935 -20.373703 86.10209656 C-23.92000916 96.77517274 -27.47427625 107.44552519 -31.06122971 118.10501385 C-32.13390003 121.2933331 -33.2034039 124.48263151 -34.26501465 127.6746521 C-35.460018 131.26251974 -36.66622842 134.84643887 -37.875 138.4296875 C-38.23184875 139.50933273 -38.58869751 140.58897797 -38.95635986 141.70133972 C-43.13270613 153.99124326 -43.13270613 153.99124326 -48.03515625 157.42578125 C-48.70417969 157.71839844 -49.37320313 158.01101563 -50.0625 158.3125 C-51.06990234 158.77076172 -51.06990234 158.77076172 -52.09765625 159.23828125 C-55.44199265 160.57738925 -58.16575797 161.18321288 -61.75 161.25 C-62.97976563 161.28867187 -62.97976563 161.28867187 -64.234375 161.328125 C-69.98510621 160.64583486 -75.11971922 157.48205996 -80.04296875 154.5859375 C-80.60005524 154.259422 -81.15714172 153.93290649 -81.73110962 153.59649658 C-83.55250694 152.52701483 -85.37009847 151.45125577 -87.1875 150.375 C-88.48193654 149.61233431 -89.77645301 148.84980426 -91.07104492 148.08740234 C-100.85362724 142.31545971 -110.5682216 136.43481942 -120.2644043 130.51904297 C-129.13571261 125.11012275 -138.0581631 119.79137794 -147 114.5 C-158.17262454 107.88764061 -169.29637308 101.2020186 -180.37792969 94.43823242 C-186.75066813 90.55359905 -193.14894207 86.7163612 -199.578125 82.92578125 C-200.30173218 82.49864838 -201.02533936 82.0715155 -201.77087402 81.63143921 C-205.29152704 79.55399397 -208.81507837 77.48176389 -212.34375 75.41796875 C-229.40077431 65.39883854 -229.40077431 65.39883854 -233 60 C-233.56406134 56.89766264 -233.53991882 54.90498849 -231.90234375 52.16015625 C-225.89312428 44.58052742 -217.82229933 43.33338513 -208.75 41.5 C-202.02220527 40.11879711 -195.39802956 38.59497515 -188.78320312 36.74560547 C-183.8536776 35.42501152 -178.8627919 34.38714073 -173.875 33.3125 C-163.56724345 31.05944629 -153.30782443 28.64307388 -143.0625 26.125 C-129.62105673 22.82433774 -116.1376585 19.75030135 -102.61743164 16.78955078 C-89.90708385 14.00484887 -77.20438656 11.21195591 -64.66894531 7.71044922 C-59.44530086 6.31996208 -54.15639508 5.2094982 -48.875 4.0625 C-41.74465672 2.50627621 -34.62861718 0.93413645 -27.55102539 -0.84765625 C-18.15239948 -3.19269864 -8.82510705 -5.1544873 0 0 Z " fill="#111111" transform="translate(594,218)"/>
</svg>
