<svg width="1000" height="1000" viewBox="0 0 1000 1000" fill="none" xmlns="http://www.w3.org/2000/svg">
<rect y="17.3076" width="1000" height="961.538" fill="white"/>
<rect x="311" y="276" width="404" height="407" stroke="#2A261D" stroke-width="60"/>
<mask id="path-3-inside-1_1192_57" fill="white">
<path d="M745 479C713.745 479 682.797 485.053 653.921 496.812C625.046 508.572 598.809 525.808 576.709 547.537C554.608 569.266 537.077 595.062 525.117 623.452C513.156 651.842 507 682.271 507 713L745 713L745 479Z"/>
</mask>
<path d="M745 479C713.745 479 682.797 485.053 653.921 496.812C625.046 508.572 598.809 525.808 576.709 547.537C554.608 569.266 537.077 595.062 525.117 623.452C513.156 651.842 507 682.271 507 713L745 713L745 479Z" stroke="#D7EDA7" stroke-width="120" mask="url(#path-3-inside-1_1192_57)"/>
</svg>
