<svg width="330" height="263" viewBox="0 0 330 263" fill="none" xmlns="http://www.w3.org/2000/svg">
<rect width="200" height="200" rx="53" transform="matrix(0.823508 -0.567305 0.8 0.6 3 113.461)" fill="white"/>
<path d="M113.036 72.3105L180.888 60.6501C184.765 59.9837 188.871 60.8607 191.657 62.9507L240.42 99.5225C243.206 101.613 244.251 104.598 243.16 107.354L224.071 155.587C222.98 158.343 219.919 160.451 216.042 161.118L148.19 172.778C144.313 173.444 140.207 172.567 137.421 170.477L88.6583 133.906C85.8716 131.816 84.827 128.83 85.9179 126.074L105.007 77.8417C106.098 75.0853 109.159 72.9768 113.036 72.3105Z" fill="white" stroke="black" stroke-width="0.5"/>
<path d="M118.474 78.6808L180.385 68.1559C182.767 67.751 185.285 68.2914 186.996 69.5745L231.711 103.11C233.421 104.393 234.066 106.225 233.402 107.919L216.143 151.933C215.474 153.638 213.58 154.943 211.181 155.351L149.27 165.876C146.888 166.281 144.369 165.74 142.659 164.457L97.9442 130.921C96.2335 129.638 95.5893 127.807 96.2533 126.113L113.512 82.0989C114.181 80.3933 116.074 79.0887 118.474 78.6808Z" fill="white" stroke="black" stroke-width="4"/>
<line y1="-2" x2="61.5881" y2="-2" transform="matrix(-1.11733 0.179049 -0.264086 -0.806087 165.972 115.727)" stroke="#111111" stroke-width="4"/>
<line x1="2" y1="-2" x2="61.2051" y2="-2" transform="matrix(-0.8 -0.6 0.823508 -0.567305 217.864 153.404)" stroke="#111111" stroke-width="4" stroke-linecap="round"/>
<path d="M165.139 116.341C164.825 117.222 165.567 118.128 166.796 118.366C168.024 118.604 169.275 118.082 169.589 117.202L165.139 116.341ZM169.589 117.202L187.171 67.8682L182.722 67.0076L165.139 116.341L169.589 117.202Z" fill="#111111"/>
<path d="M141.815 86.6252C143.493 84.8069 146.729 84.3215 147.638 85.7516L157.871 101.84C158.78 103.27 156.681 105.543 154.093 105.932L124.974 110.3C122.385 110.688 121.249 108.9 122.927 107.082L141.815 86.6252Z" fill="#111111"/>
<rect width="29" height="29" rx="4" transform="matrix(1.11327 -0.191043 0.8 0.6 128.65 137.156)" fill="#111111"/>
<circle cx="14.5" cy="14.5" r="14.5" transform="matrix(0.447582 -0.75598 0.841423 0.569931 183.208 114.195)" fill="#111111"/>
</svg>
