<svg width="494" height="407" viewBox="0 0 494 407" fill="none" xmlns="http://www.w3.org/2000/svg">
<g filter="url(#filter0_d_2405_89)">
<rect width="180" height="180" rx="48" transform="matrix(0.840571 -0.541701 0.830139 0.557556 96.5127 194.057)" fill="#1A1A1A"/>
<rect x="3.34142" y="0.0317098" width="176" height="176" rx="46" transform="matrix(0.840571 -0.541701 0.830139 0.557556 97.0191 195.881)" stroke="url(#paint0_linear_2405_89)" stroke-width="4"/>
</g>
<path d="M202.274 165.317C203.365 162.56 206.425 160.452 210.303 159.785L258.674 151.473C262.552 150.806 266.657 151.683 269.444 153.773L304.206 179.845C306.993 181.935 308.037 184.92 306.946 187.676L293.337 222.061C292.246 224.817 289.186 226.926 285.308 227.592L236.937 235.905C233.059 236.571 228.954 235.695 226.168 233.605L191.405 207.533C188.619 205.443 187.574 202.457 188.665 199.701L202.274 165.317Z" fill="#CFF44E" stroke="black" stroke-width="0.5"/>
<path d="M209.281 168.429C209.95 166.724 211.843 165.419 214.243 165.011L258.722 157.45C261.104 157.045 263.623 157.585 265.333 158.868L297.476 182.976C299.187 184.259 299.831 186.09 299.167 187.783L286.768 219.405C286.1 221.111 284.206 222.416 281.806 222.824L237.326 230.385C234.944 230.79 232.426 230.249 230.715 228.967L198.572 204.859C196.861 203.576 196.218 201.745 196.881 200.052L209.281 168.429Z" fill="white" stroke="black" stroke-width="4"/>
<line y1="-2" x2="46.722" y2="-2" transform="matrix(-1.11733 0.179049 -0.264086 -0.806087 248.893 192.939)" stroke="#111111" stroke-width="4"/>
<line x1="2" y1="-2" x2="45.9487" y2="-2" transform="matrix(-0.8 -0.6 0.823508 -0.567305 288.259 221.521)" stroke="#111111" stroke-width="4" stroke-linecap="round"/>
<path d="M247.724 193.302C247.41 194.183 248.152 195.089 249.38 195.327C250.609 195.564 251.86 195.043 252.174 194.163L249.949 193.732L247.724 193.302ZM249.949 193.732L252.174 194.163L265.512 156.737L263.287 156.307L261.063 155.877L247.724 193.302L249.949 193.732Z" fill="#111111"/>
<path d="M229.655 171.85C231.333 170.032 234.569 169.547 235.478 170.977L242.253 181.629C243.162 183.059 241.064 185.332 238.475 185.72L219.196 188.612C216.608 189 215.471 187.213 217.15 185.394L229.655 171.85Z" fill="#111111"/>
<rect width="22" height="22" rx="4" transform="matrix(1.11327 -0.191043 0.8 0.6 220.58 209.197)" fill="#111111"/>
<circle cx="11" cy="11" r="11" transform="matrix(0.447582 -0.75598 0.841422 0.569931 261.969 191.777)" fill="#111111"/>
<defs>
<filter id="filter0_d_2405_89" x="0" y="0" width="493.753" height="406.967" filterUnits="userSpaceOnUse" color-interpolation-filters="sRGB">
<feFlood flood-opacity="0" result="BackgroundImageFix"/>
<feColorMatrix in="SourceAlpha" type="matrix" values="0 0 0 0 0 0 0 0 0 0 0 0 0 0 0 0 0 0 127 0" result="hardAlpha"/>
<feOffset dy="8"/>
<feGaussianBlur stdDeviation="60"/>
<feComposite in2="hardAlpha" operator="out"/>
<feColorMatrix type="matrix" values="0 0 0 0 0.811765 0 0 0 0 0.956863 0 0 0 0 0.305882 0 0 0 0.6 0"/>
<feBlend mode="normal" in2="BackgroundImageFix" result="effect1_dropShadow_2405_89"/>
<feBlend mode="normal" in="SourceGraphic" in2="effect1_dropShadow_2405_89" result="shape"/>
</filter>
<linearGradient id="paint0_linear_2405_89" x1="-18.2001" y1="10.5967" x2="115.614" y2="220.845" gradientUnits="userSpaceOnUse">
<stop offset="0.185" stop-color="#CFF44E"/>
<stop offset="0.585" stop-color="#849E4A"/>
<stop offset="1" stop-color="#E0FD61"/>
</linearGradient>
</defs>
</svg>
